<svg xmlns="http://www.w3.org/2000/svg" width="200" height="200"><g transform="matrix(8 0 0 8 -2297.04 -4022.745)"><path style="marker:none" color="#bebebe" overflow="visible" fill="none" d="M292 508h16v16h-16z"/><path d="M296 509a2 2 0 100 4 2 2 0 000-4zm-.041 4.986a.995.995 0 00-.305.06c-.736.112-2.654.692-2.654 3.954v5h4v-4.691c.1.07.202.137.307.195.952.527 1.915.5 2.699.496h.494c.5 0 .5-.5.5-.5s0-.5.014-.5H300v-1a.6.6 0 00-.006 0c-.777.004-1.313-.023-1.72-.248-.408-.225-.87-.705-1.325-2.068a1 1 0 00-.99-.698z" style="marker:none" color="#bebebe" overflow="visible" fill="#1b744b"/><path style="marker:none" d="M304 509a2 2 0 110 4 2 2 0 010-4zm.041 4.986a.995.995 0 01.305.06c.736.112 2.654.692 2.654 3.954v5h-4v-4.691c-.1.07-.202.137-.307.195-.952.527-1.915.5-2.699.496h-.494c-.5 0-.5-.5-.5-.5s0-.5-.014-.5H300v-1a.6.6 0 01.006 0c.777.004 1.313-.023 1.72-.248.408-.225.87-.705 1.325-2.068a1 1 0 01.99-.698z" color="#bebebe" overflow="visible" fill="#8ff0a4"/></g></svg>